<svg xmlns="http://www.w3.org/2000/svg" viewBox="0 0 37 37"><rect width="100%" height="100%" fill="#fff"/><path d="M4 4h1v1H4zm1 0h1v1H5zm1 0h1v1H6zm1 0h1v1H7zm1 0h1v1H8zm1 0h1v1H9zm1 0h1v1h-1zm2 0h1v1h-1zm5 0h1v1h-1zm2 0h1v1h-1zm2 0h1v1h-1zm1 0h1v1h-1zm2 0h1v1h-1zm2 0h1v1h-1zm1 0h1v1h-1zm1 0h1v1h-1zm1 0h1v1h-1zm1 0h1v1h-1zm1 0h1v1h-1zm1 0h1v1h-1zM4 5h1v1H4zm6 0h1v1h-1zm2 0h1v1h-1zm2 0h1v1h-1zm1 0h1v1h-1zm1 0h1v1h-1zm10 0h1v1h-1zm6 0h1v1h-1zM4 6h1v1H4zm2 0h1v1H6zm1 0h1v1H7zm1 0h1v1H8zm2 0h1v1h-1zm3 0h1v1h-1zm2 0h1v1h-1zm2 0h1v1h-1zm5 0h1v1h-1zm2 0h1v1h-1zm2 0h1v1h-1zm2 0h1v1h-1zm1 0h1v1h-1zm1 0h1v1h-1zm2 0h1v1h-1zM4 7h1v1H4zm2 0h1v1H6zm1 0h1v1H7zm1 0h1v1H8zm2 0h1v1h-1zm3 0h1v1h-1zm2 0h1v1h-1zm1 0h1v1h-1zm1 0h1v1h-1zm1 0h1v1h-1zm3 0h1v1h-1zm3 0h1v1h-1zm2 0h1v1h-1zm2 0h1v1h-1zm1 0h1v1h-1zm1 0h1v1h-1zm2 0h1v1h-1zM4 8h1v1H4zm2 0h1v1H6zm1 0h1v1H7zm1 0h1v1H8zm2 0h1v1h-1zm3 0h1v1h-1zm1 0h1v1h-1zm3 0h1v1h-1zm1 0h1v1h-1zm1 0h1v1h-1zm1 0h1v1h-1zm1 0h1v1h-1zm1 0h1v1h-1zm1 0h1v1h-1zm1 0h1v1h-1zm2 0h1v1h-1zm2 0h1v1h-1zm1 0h1v1h-1zm1 0h1v1h-1zm2 0h1v1h-1zM4 9h1v1H4zm6 0h1v1h-1zm11 0h1v1h-1zm3 0h1v1h-1zm2 0h1v1h-1zm6 0h1v1h-1zM4 10h1v1H4zm1 0h1v1H5zm1 0h1v1H6zm1 0h1v1H7zm1 0h1v1H8zm1 0h1v1H9zm1 0h1v1h-1zm2 0h1v1h-1zm2 0h1v1h-1zm2 0h1v1h-1zm2 0h1v1h-1zm2 0h1v1h-1zm2 0h1v1h-1zm2 0h1v1h-1zm2 0h1v1h-1zm1 0h1v1h-1zm1 0h1v1h-1zm1 0h1v1h-1zm1 0h1v1h-1zm1 0h1v1h-1zm1 0h1v1h-1zM13 11h1v1h-1zm2 0h1v1h-1zm1 0h1v1h-1zm2 0h1v1h-1zm2 0h1v1h-1zm3 0h1v1h-1zm1 0h1v1h-1zM5 12h1v1H5zm5 0h1v1h-1zm1 0h1v1h-1zm1 0h1v1h-1zm3 0h1v1h-1zm1 0h1v1h-1zm1 0h1v1h-1zm3 0h1v1h-1zm1 0h1v1h-1zm1 0h1v1h-1zm1 0h1v1h-1zm1 0h1v1h-1zm1 0h1v1h-1zm6 0h1v1h-1zm1 0h1v1h-1zM7 13h1v1H7zm1 0h1v1H8zm4 0h1v1h-1zm3 0h1v1h-1zm2 0h1v1h-1zm2 0h1v1h-1zm2 0h1v1h-1zm2 0h1v1h-1zm2 0h1v1h-1zm2 0h1v1h-1zm1 0h1v1h-1zm1 0h1v1h-1zm2 0h1v1h-1zM6 14h1v1H6zm4 0h1v1h-1zm1 0h1v1h-1zm1 0h1v1h-1zm3 0h1v1h-1zm2 0h1v1h-1zm1 0h1v1h-1zm1 0h1v1h-1zm2 0h1v1h-1zm4 0h1v1h-1zm1 0h1v1h-1zm1 0h1v1h-1zm1 0h1v1h-1zm1 0h1v1h-1zm1 0h1v1h-1zM4 15h1v1H4zm5 0h1v1H9zm2 0h1v1h-1zm1 0h1v1h-1zm1 0h1v1h-1zm2 0h1v1h-1zm1 0h1v1h-1zm1 0h1v1h-1zm3 0h1v1h-1zm3 0h1v1h-1zm1 0h1v1h-1zm2 0h1v1h-1zm3 0h1v1h-1zM8 16h1v1H8zm2 0h1v1h-1zm2 0h1v1h-1zm2 0h1v1h-1zm4 0h1v1h-1zm2 0h1v1h-1zm4 0h1v1h-1zm1 0h1v1h-1zm1 0h1v1h-1zm3 0h1v1h-1zm2 0h1v1h-1zM5 17h1v1H5zm3 0h1v1H8zm3 0h1v1h-1zm4 0h1v1h-1zm2 0h1v1h-1zm1 0h1v1h-1zm2 0h1v1h-1zm2 0h1v1h-1zm1 0h1v1h-1zm1 0h1v1h-1zm2 0h1v1h-1zm2 0h1v1h-1zm1 0h1v1h-1zm3 0h1v1h-1zM5 18h1v1H5zm2 0h1v1H7zm1 0h1v1H8zm1 0h1v1H9zm1 0h1v1h-1zm3 0h1v1h-1zm1 0h1v1h-1zm2 0h1v1h-1zm3 0h1v1h-1zm3 0h1v1h-1zm2 0h1v1h-1zm1 0h1v1h-1zm2 0h1v1h-1zm4 0h1v1h-1zM4 19h1v1H4zm1 0h1v1H5zm1 0h1v1H6zm2 0h1v1H8zm1 0h1v1H9zm2 0h1v1h-1zm3 0h1v1h-1zm3 0h1v1h-1zm1 0h1v1h-1zm1 0h1v1h-1zm1 0h1v1h-1zm3 0h1v1h-1zm1 0h1v1h-1zm2 0h1v1h-1zm2 0h1v1h-1zm1 0h1v1h-1zm1 0h1v1h-1zm1 0h1v1h-1zm1 0h1v1h-1zM4 20h1v1H4zm2 0h1v1H6zm1 0h1v1H7zm2 0h1v1H9zm1 0h1v1h-1zm1 0h1v1h-1zm2 0h1v1h-1zm2 0h1v1h-1zm3 0h1v1h-1zm4 0h1v1h-1zm7 0h1v1h-1zm1 0h1v1h-1zm2 0h1v1h-1zM4 21h1v1H4zm1 0h1v1H5zm2 0h1v1H7zm1 0h1v1H8zm1 0h1v1H9zm6 0h1v1h-1zm1 0h1v1h-1zm1 0h1v1h-1zm1 0h1v1h-1zm2 0h1v1h-1zm1 0h1v1h-1zm1 0h1v1h-1zm1 0h1v1h-1zm1 0h1v1h-1zm2 0h1v1h-1zm1 0h1v1h-1zm1 0h1v1h-1zm1 0h1v1h-1zm3 0h1v1h-1zM4 22h1v1H4zm1 0h1v1H5zm1 0h1v1H6zm4 0h1v1h-1zm1 0h1v1h-1zm3 0h1v1h-1zm1 0h1v1h-1zm1 0h1v1h-1zm1 0h1v1h-1zm1 0h1v1h-1zm2 0h1v1h-1zm3 0h1v1h-1zm5 0h1v1h-1zm2 0h1v1h-1zm2 0h1v1h-1zM4 23h1v1H4zm2 0h1v1H6zm1 0h1v1H7zm1 0h1v1H8zm4 0h1v1h-1zm1 0h1v1h-1zm4 0h1v1h-1zm2 0h1v1h-1zm1 0h1v1h-1zm2 0h1v1h-1zm2 0h1v1h-1zm1 0h1v1h-1zm1 0h1v1h-1zm1 0h1v1h-1zm1 0h1v1h-1zm1 0h1v1h-1zm2 0h1v1h-1zM4 24h1v1H4zm2 0h1v1H6zm2 0h1v1H8zm1 0h1v1H9zm1 0h1v1h-1zm3 0h1v1h-1zm1 0h1v1h-1zm2 0h1v1h-1zm1 0h1v1h-1zm1 0h1v1h-1zm3 0h1v1h-1zm1 0h1v1h-1zm2 0h1v1h-1zm1 0h1v1h-1zm1 0h1v1h-1zm1 0h1v1h-1zm1 0h1v1h-1zm1 0h1v1h-1zm1 0h1v1h-1zm2 0h1v1h-1zM12 25h1v1h-1zm1 0h1v1h-1zm1 0h1v1h-1zm1 0h1v1h-1zm3 0h1v1h-1zm1 0h1v1h-1zm2 0h1v1h-1zm1 0h1v1h-1zm2 0h1v1h-1zm4 0h1v1h-1zm1 0h1v1h-1zm1 0h1v1h-1zM4 26h1v1H4zm1 0h1v1H5zm1 0h1v1H6zm1 0h1v1H7zm1 0h1v1H8zm1 0h1v1H9zm1 0h1v1h-1zm2 0h1v1h-1zm3 0h1v1h-1zm2 0h1v1h-1zm2 0h1v1h-1zm1 0h1v1h-1zm1 0h1v1h-1zm2 0h1v1h-1zm1 0h1v1h-1zm2 0h1v1h-1zm2 0h1v1h-1zM4 27h1v1H4zm6 0h1v1h-1zm3 0h1v1h-1zm3 0h1v1h-1zm3 0h1v1h-1zm2 0h1v1h-1zm1 0h1v1h-1zm1 0h1v1h-1zm1 0h1v1h-1zm4 0h1v1h-1zm1 0h1v1h-1zm2 0h1v1h-1zm1 0h1v1h-1zM4 28h1v1H4zm2 0h1v1H6zm1 0h1v1H7zm1 0h1v1H8zm2 0h1v1h-1zm3 0h1v1h-1zm1 0h1v1h-1zm2 0h1v1h-1zm1 0h1v1h-1zm2 0h1v1h-1zm2 0h1v1h-1zm2 0h1v1h-1zm1 0h1v1h-1zm1 0h1v1h-1zm1 0h1v1h-1zm1 0h1v1h-1zm1 0h1v1h-1zM4 29h1v1H4zm2 0h1v1H6zm1 0h1v1H7zm1 0h1v1H8zm2 0h1v1h-1zm7 0h1v1h-1zm1 0h1v1h-1zm3 0h1v1h-1zm1 0h1v1h-1zm1 0h1v1h-1zm1 0h1v1h-1zm3 0h1v1h-1zm4 0h1v1h-1zM4 30h1v1H4zm2 0h1v1H6zm1 0h1v1H7zm1 0h1v1H8zm2 0h1v1h-1zm4 0h1v1h-1zm1 0h1v1h-1zm1 0h1v1h-1zm1 0h1v1h-1zm2 0h1v1h-1zm1 0h1v1h-1zm1 0h1v1h-1zm2 0h1v1h-1zm1 0h1v1h-1zm1 0h1v1h-1zm1 0h1v1h-1zm1 0h1v1h-1zm1 0h1v1h-1zm1 0h1v1h-1zm2 0h1v1h-1zM4 31h1v1H4zm6 0h1v1h-1zm2 0h1v1h-1zm1 0h1v1h-1zm1 0h1v1h-1zm1 0h1v1h-1zm5 0h1v1h-1zm2 0h1v1h-1zm3 0h1v1h-1zm3 0h1v1h-1zm1 0h1v1h-1zm1 0h1v1h-1zm2 0h1v1h-1zM4 32h1v1H4zm1 0h1v1H5zm1 0h1v1H6zm1 0h1v1H7zm1 0h1v1H8zm1 0h1v1H9zm1 0h1v1h-1zm3 0h1v1h-1zm1 0h1v1h-1zm2 0h1v1h-1zm3 0h1v1h-1zm2 0h1v1h-1zm2 0h1v1h-1zm5 0h1v1h-1zm1 0h1v1h-1zm1 0h1v1h-1z"/></svg>
